<svg xmlns="http://www.w3.org/2000/svg" xmlns:xlink="http://www.w3.org/1999/xlink" width="500" zoomAndPan="magnify" viewBox="0 0 375 173.999997" height="232" preserveAspectRatio="xMidYMid meet" version="1.0"><defs><g/><clipPath id="361acaea86"><rect x="0" width="375" y="0" height="150"/></clipPath><clipPath id="757f6d24f5"><rect x="0" width="375" y="0" height="78"/></clipPath></defs><rect x="-37.5" width="450" fill="#ffffff" y="-17.4" height="208.799996" fill-opacity="1"/><rect x="-37.5" width="450" fill="#ffffff" y="-17.4" height="208.799996" fill-opacity="1"/><g transform="matrix(1, 0, 0, 1, 0, 0)"><g clip-path="url(#361acaea86)"><g fill="#1a1a1a" fill-opacity="1"><g transform="translate(0.379862, 100.890267)"><g><path d="M 3.15625 0 L 3.15625 -1.4375 L 6.171875 -2.578125 C 8.179688 -3.347656 9.445312 -4.28125 9.96875 -5.375 C 10.5 -6.476562 10.765625 -7.988281 10.765625 -9.90625 L 10.765625 -84.8125 C 10.765625 -86.71875 10.476562 -88.242188 9.90625 -89.390625 C 9.332031 -90.546875 8.085938 -91.457031 6.171875 -92.125 L 3.15625 -93.28125 L 3.15625 -94.703125 L 39.75 -94.703125 L 39.75 -93.28125 L 37.171875 -92.125 C 35.347656 -91.457031 34.101562 -90.523438 33.4375 -89.328125 C 32.769531 -88.128906 32.4375 -86.578125 32.4375 -84.671875 L 32.4375 -2.875 L 54.53125 -2.875 C 58.070312 -2.875 60.675781 -3.734375 62.34375 -5.453125 C 64.019531 -7.171875 65.625 -9.660156 67.15625 -12.921875 L 72.75 -24.96875 L 74.1875 -24.96875 L 72.890625 0 Z M 3.15625 0 "/></g></g></g><g fill="#1a1a1a" fill-opacity="1"><g transform="translate(77.85486, 100.890267)"><g><path d="M 20.09375 -78.640625 C 16.84375 -78.640625 14.09375 -79.664062 11.84375 -81.71875 C 9.59375 -83.78125 8.46875 -86.390625 8.46875 -89.546875 C 8.46875 -92.796875 9.59375 -95.425781 11.84375 -97.4375 C 14.09375 -99.445312 16.84375 -100.453125 20.09375 -100.453125 C 23.34375 -100.453125 26.066406 -99.445312 28.265625 -97.4375 C 30.460938 -95.425781 31.5625 -92.796875 31.5625 -89.546875 C 31.5625 -86.390625 30.460938 -83.78125 28.265625 -81.71875 C 26.066406 -79.664062 23.34375 -78.640625 20.09375 -78.640625 Z M 3.15625 0 L 3.15625 -1.4375 L 5.171875 -2.015625 C 7.078125 -2.585938 8.390625 -3.445312 9.109375 -4.59375 C 9.828125 -5.738281 10.1875 -7.269531 10.1875 -9.1875 L 10.1875 -54.09375 C 10.1875 -56.101562 9.828125 -57.609375 9.109375 -58.609375 C 8.390625 -59.617188 7.078125 -60.316406 5.171875 -60.703125 L 3.15625 -61.125 L 3.15625 -62.5625 L 29.421875 -71.03125 L 30.859375 -69.59375 L 30.421875 -49.21875 L 30.421875 -9.046875 C 30.421875 -7.128906 30.78125 -5.59375 31.5 -4.4375 C 32.21875 -3.289062 33.484375 -2.429688 35.296875 -1.859375 L 36.734375 -1.4375 L 36.734375 0 Z M 3.15625 0 "/></g></g></g><g fill="#1a1a1a" fill-opacity="1"><g transform="translate(118.027065, 100.890267)"><g><path d="M 3.15625 0 L 3.15625 -1.4375 L 6.171875 -2.578125 C 8.085938 -3.253906 9.332031 -4.164062 9.90625 -5.3125 C 10.476562 -6.457031 10.765625 -7.941406 10.765625 -9.765625 L 10.765625 -84.8125 C 10.765625 -86.71875 10.476562 -88.242188 9.90625 -89.390625 C 9.332031 -90.546875 8.085938 -91.457031 6.171875 -92.125 L 3.15625 -93.28125 L 3.15625 -94.703125 L 38.890625 -94.703125 L 38.890625 -93.28125 L 35.734375 -91.984375 C 34.109375 -91.410156 33.003906 -90.546875 32.421875 -89.390625 C 31.847656 -88.242188 31.5625 -86.671875 31.5625 -84.671875 L 31.5625 -9.609375 C 31.5625 -7.703125 31.875 -6.222656 32.5 -5.171875 C 33.125 -4.117188 34.34375 -3.253906 36.15625 -2.578125 L 38.890625 -1.4375 L 38.890625 0 Z M 56.109375 0 L 56.109375 -1.4375 L 57.96875 -2.015625 C 59.882812 -2.585938 60.890625 -3.539062 60.984375 -4.875 C 61.078125 -6.21875 60.503906 -7.75 59.265625 -9.46875 L 31.71875 -48.640625 L 68.015625 -85.671875 C 69.359375 -87.003906 70.097656 -88.289062 70.234375 -89.53125 C 70.378906 -90.78125 69.445312 -91.738281 67.4375 -92.40625 L 65 -93.28125 L 65 -94.703125 L 85.953125 -94.703125 L 85.953125 -93.28125 L 82.21875 -92.125 C 80.113281 -91.457031 78.441406 -90.644531 77.203125 -89.6875 C 75.960938 -88.726562 74.523438 -87.4375 72.890625 -85.8125 L 47.21875 -59.546875 L 80.9375 -10.328125 C 82.375 -8.222656 83.738281 -6.5 85.03125 -5.15625 C 86.320312 -3.820312 88.160156 -2.773438 90.546875 -2.015625 L 92.5625 -1.4375 L 92.5625 0 Z M 56.109375 0 "/></g></g></g><g fill="#1a1a1a" fill-opacity="1"><g transform="translate(210.422815, 100.890267)"><g><path d="M 23.671875 0 L 23.671875 -1.4375 L 27.984375 -2.578125 C 31.328125 -3.535156 33 -5.929688 33 -9.765625 L 33 -37.015625 L 9.328125 -85.234375 C 8.460938 -87.148438 7.671875 -88.585938 6.953125 -89.546875 C 6.242188 -90.503906 5.171875 -91.316406 3.734375 -91.984375 L 1.140625 -93.28125 L 1.140625 -94.703125 L 39.609375 -94.703125 L 39.609375 -93.28125 L 37.015625 -92.265625 C 34.910156 -91.410156 33.765625 -90.238281 33.578125 -88.75 C 33.390625 -87.269531 33.773438 -85.429688 34.734375 -83.234375 L 51.65625 -45.640625 L 70.609375 -84.671875 C 71.367188 -86.203125 71.675781 -87.78125 71.53125 -89.40625 C 71.382812 -91.03125 70.359375 -92.082031 68.453125 -92.5625 L 66.4375 -93.28125 L 66.4375 -94.703125 L 83.65625 -94.703125 L 83.65625 -93.28125 L 80.9375 -92.265625 C 79.113281 -91.597656 77.769531 -90.664062 76.90625 -89.46875 C 76.050781 -88.269531 75.191406 -86.765625 74.328125 -84.953125 L 54.671875 -43.625 L 54.671875 -9.765625 C 54.671875 -7.847656 55.03125 -6.289062 55.75 -5.09375 C 56.46875 -3.894531 57.734375 -3.054688 59.546875 -2.578125 L 64 -1.4375 L 64 0 Z M 23.671875 0 "/></g></g></g><g fill="#1a1a1a" fill-opacity="1"><g transform="translate(281.294693, 100.890267)"><g><path d="M 1.140625 0 L 1.140625 -1.4375 L 4.734375 -2.71875 C 6.648438 -3.488281 8.132812 -4.421875 9.1875 -5.515625 C 10.238281 -6.617188 11.097656 -8.175781 11.765625 -10.1875 L 41.328125 -95 L 53.53125 -95 L 82.65625 -9.609375 C 83.414062 -7.503906 84.273438 -5.898438 85.234375 -4.796875 C 86.191406 -3.703125 87.675781 -2.773438 89.6875 -2.015625 L 91.40625 -1.4375 L 91.40625 0 L 54.953125 0 L 54.953125 -1.4375 L 57.109375 -2.15625 C 59.117188 -2.914062 60.335938 -3.988281 60.765625 -5.375 C 61.203125 -6.769531 61.132812 -8.421875 60.5625 -10.328125 L 53.8125 -31 L 21.953125 -31 L 15.0625 -10.765625 C 14.394531 -8.660156 14.179688 -6.984375 14.421875 -5.734375 C 14.660156 -4.492188 15.785156 -3.488281 17.796875 -2.71875 L 20.953125 -1.4375 L 20.953125 0 Z M 22.953125 -33.859375 L 52.953125 -33.859375 L 38.453125 -78.5 Z M 22.953125 -33.859375 "/></g></g></g></g></g><g transform="matrix(1, 0, 0, 1, 0, 96)"><g clip-path="url(#757f6d24f5)"><g fill="#1a1a1a" fill-opacity="1"><g transform="translate(1.743168, 71.136735)"><g><path d="M 48.359375 -12.765625 C 47.296875 -9.941406 45.78125 -7.507812 43.8125 -5.46875 C 41.851562 -3.4375 39.550781 -1.890625 36.90625 -0.828125 C 34.257812 0.222656 31.378906 0.75 28.265625 0.75 C 23.523438 0.75 19.429688 -0.289062 15.984375 -2.375 C 12.535156 -4.46875 9.863281 -7.425781 7.96875 -11.25 C 6.082031 -15.082031 5.140625 -19.644531 5.140625 -24.9375 C 5.140625 -30.226562 6.082031 -34.785156 7.96875 -38.609375 C 9.863281 -42.441406 12.535156 -45.398438 15.984375 -47.484375 C 19.429688 -49.578125 23.472656 -50.625 28.109375 -50.625 C 31.328125 -50.625 34.195312 -50.179688 36.71875 -49.296875 C 39.238281 -48.421875 41.390625 -47.113281 43.171875 -45.375 C 44.960938 -43.632812 46.390625 -41.503906 47.453125 -38.984375 L 41.484375 -36.1875 C 40.378906 -39.0625 38.78125 -41.238281 36.6875 -42.71875 C 34.59375 -44.207031 31.882812 -44.953125 28.5625 -44.953125 C 25.1875 -44.953125 22.210938 -44.160156 19.640625 -42.578125 C 17.078125 -40.992188 15.078125 -38.710938 13.640625 -35.734375 C 12.203125 -32.765625 11.484375 -29.164062 11.484375 -24.9375 C 11.484375 -20.75 12.160156 -17.15625 13.515625 -14.15625 C 14.878906 -11.164062 16.820312 -8.875 19.34375 -7.28125 C 21.863281 -5.695312 24.835938 -4.90625 28.265625 -4.90625 C 31.585938 -4.90625 34.484375 -5.75 36.953125 -7.4375 C 39.421875 -9.125 41.207031 -11.65625 42.3125 -15.03125 Z M 48.359375 -12.765625 "/></g></g></g><g fill="#1a1a1a" fill-opacity="1"><g transform="translate(53.575073, 71.136735)"><g><path d="M 47.90625 0 L 41.484375 0 L 36.1875 -13.828125 L 13.59375 -13.828125 L 8.3125 0 L 1.96875 0 L 21.390625 -49.875 L 28.5625 -49.875 Z M 15.796875 -19.5 L 34 -19.5 L 24.859375 -44.046875 Z M 15.796875 -19.5 "/></g></g></g><g fill="#1a1a1a" fill-opacity="1"><g transform="translate(96.641877, 71.136735)"><g><path d="M 43.21875 -49.875 L 43.21875 -44.203125 L 25.84375 -44.203125 L 25.84375 0 L 19.796875 0 L 19.796875 -44.203125 L 2.421875 -44.203125 L 2.421875 -49.875 Z M 43.21875 -49.875 "/></g></g></g><g fill="#1a1a1a" fill-opacity="1"><g transform="translate(142.278122, 71.136735)"><g><path d="M 8.15625 0 L 8.15625 -49.875 L 43.140625 -49.875 L 43.140625 -44.203125 L 14.203125 -44.203125 L 14.203125 -28.109375 L 36.71875 -28.109375 L 36.71875 -22.4375 L 14.203125 -22.4375 L 14.203125 -5.671875 L 44.28125 -5.671875 L 44.28125 0 Z M 8.15625 0 "/></g></g></g><g fill="#1a1a1a" fill-opacity="1"><g transform="translate(190.483295, 71.136735)"><g><path d="M 27.046875 -49.875 C 32.140625 -49.875 36.222656 -48.5625 39.296875 -45.9375 C 42.367188 -43.320312 43.90625 -39.769531 43.90625 -35.28125 C 43.90625 -30.800781 42.351562 -27.3125 39.25 -24.8125 C 36.15625 -22.320312 32.0625 -21.078125 26.96875 -21.078125 L 26.453125 -20.703125 L 14.203125 -20.703125 L 14.203125 0 L 8.15625 0 L 8.15625 -49.875 Z M 26.96875 -26.375 C 30.550781 -26.375 33.207031 -27.113281 34.9375 -28.59375 C 36.675781 -30.082031 37.546875 -32.3125 37.546875 -35.28125 C 37.546875 -38.257812 36.675781 -40.488281 34.9375 -41.96875 C 33.207031 -43.457031 30.550781 -44.203125 26.96875 -44.203125 L 14.203125 -44.203125 L 14.203125 -26.375 Z M 30.453125 -25.15625 L 46.921875 0 L 39.75 0 L 25.390625 -21.84375 Z M 30.453125 -25.15625 "/></g></g></g><g fill="#1a1a1a" fill-opacity="1"><g transform="translate(240.728505, 71.136735)"><g><path d="M 14.203125 -49.875 L 14.203125 0 L 8.15625 0 L 8.15625 -49.875 Z M 14.203125 -49.875 "/></g></g></g><g fill="#1a1a1a" fill-opacity="1"><g transform="translate(263.093306, 71.136735)"><g><path d="M 47.296875 -49.875 L 47.296875 0 L 39.828125 0 L 18.96875 -33.40625 L 13.671875 -42.765625 L 13.59375 -42.765625 L 13.90625 -35.21875 L 13.90625 0 L 8.15625 0 L 8.15625 -49.875 L 15.640625 -49.875 L 36.421875 -16.625 L 41.78125 -7.03125 L 41.859375 -7.03125 L 41.5625 -14.65625 L 41.5625 -49.875 Z M 47.296875 -49.875 "/></g></g></g><g fill="#1a1a1a" fill-opacity="1"><g transform="translate(318.551915, 71.136735)"><g><path d="M 28.265625 0.75 C 23.523438 0.75 19.429688 -0.289062 15.984375 -2.375 C 12.535156 -4.46875 9.863281 -7.425781 7.96875 -11.25 C 6.082031 -15.082031 5.140625 -19.644531 5.140625 -24.9375 C 5.140625 -30.226562 6.132812 -34.785156 8.125 -38.609375 C 10.113281 -42.441406 12.894531 -45.398438 16.46875 -47.484375 C 20.050781 -49.578125 24.160156 -50.625 28.796875 -50.625 C 33.722656 -50.625 37.734375 -49.691406 40.828125 -47.828125 C 43.929688 -45.960938 46.441406 -43.09375 48.359375 -39.21875 L 42.84375 -36.1875 C 41.738281 -39.0625 39.988281 -41.238281 37.59375 -42.71875 C 35.195312 -44.207031 32.265625 -44.953125 28.796875 -44.953125 C 25.421875 -44.953125 22.429688 -44.160156 19.828125 -42.578125 C 17.234375 -40.992188 15.191406 -38.703125 13.703125 -35.703125 C 12.222656 -32.703125 11.484375 -29.113281 11.484375 -24.9375 C 11.484375 -20.75 12.125 -17.15625 13.40625 -14.15625 C 14.695312 -11.164062 16.613281 -8.875 19.15625 -7.28125 C 21.695312 -5.695312 24.804688 -4.90625 28.484375 -4.90625 C 30.546875 -4.90625 32.472656 -5.171875 34.265625 -5.703125 C 36.054688 -6.234375 37.617188 -7.023438 38.953125 -8.078125 C 40.285156 -9.140625 41.328125 -10.476562 42.078125 -12.09375 C 42.835938 -13.707031 43.21875 -15.59375 43.21875 -17.75 L 43.21875 -19.5 L 27.359375 -19.5 L 27.359375 -25.15625 L 48.734375 -25.15625 L 48.734375 0 L 43.984375 0 L 43.671875 -9.296875 L 44.953125 -9.0625 C 43.648438 -5.9375 41.585938 -3.519531 38.765625 -1.8125 C 35.941406 -0.101562 32.441406 0.75 28.265625 0.75 Z M 28.265625 0.75 "/></g></g></g></g></g></svg>